HIERARCHY
ROOT Hips
{
	OFFSET 0.000000 0.000000 0.000000
	CHANNELS 6 Xposition Yposition Zposition Xrotation Yrotation Zrotation
	JOINT Thigh.L
	{
		OFFSET 0.055431 0.026550 -0.094897
		CHANNELS 3 Xrotation Yrotation Zrotation
		JOINT Shin.L
		{
			OFFSET 0.059839 0.007009 -0.410813
			CHANNELS 3 Xrotation Yrotation Zrotation
			JOINT Foot.L
			{
				OFFSET -0.042126 0.032085 -0.436566
				CHANNELS 3 Xrotation Yrotation Zrotation
				JOINT Toe.L
				{
					OFFSET 0.048332 -0.126726 -0.064110
					CHANNELS 3 Xrotation Yrotation Zrotation
					End Site
					{
						OFFSET 0.000000 0.050000 0.000000
					}
				}
			}
		}
	}
	JOINT Thigh.R
	{
		OFFSET -0.060493 0.020878 -0.107509
		CHANNELS 3 Xrotation Yrotation Zrotation
		JOINT Shin.R
		{
			OFFSET -0.048884 0.015007 -0.392165
			CHANNELS 3 Xrotation Yrotation Zrotation
			JOINT Foot.R
			{
				OFFSET 0.014035 0.020234 -0.445600
				CHANNELS 3 Xrotation Yrotation Zrotation
				JOINT Toe.R
				{
					OFFSET -0.039718 -0.127554 -0.064009
					CHANNELS 3 Xrotation Yrotation Zrotation
					End Site
					{
						OFFSET 0.000000 0.050000 0.000000
					}
				}
			}
		}
	}
	JOINT Spine
	{
		OFFSET -0.002521 0.028289 0.113763
		CHANNELS 3 Xrotation Yrotation Zrotation
		JOINT Spine.2
		{
			OFFSET 0.009044 0.006918 0.141001
			CHANNELS 3 Xrotation Yrotation Zrotation
			JOINT Chest
			{
				OFFSET -0.010925 -0.023121 0.056373
				CHANNELS 3 Xrotation Yrotation Zrotation
				JOINT Neck
				{
					OFFSET -0.012235 0.026686 0.171779
					CHANNELS 3 Xrotation Yrotation Zrotation
					JOINT Head
					{
						OFFSET 0.025350 -0.021417 0.173168
						CHANNELS 3 Xrotation Yrotation Zrotation
						End Site
						{
							OFFSET 0.000000 0.050000 0.000000
						}
					}
				}
				JOINT Clavicle.L
				{
					OFFSET 0.047610 0.005169 0.088241
					CHANNELS 3 Xrotation Yrotation Zrotation
					JOINT UpperArm.L
					{
						OFFSET 0.128018 0.013572 0.058017
						CHANNELS 3 Xrotation Yrotation Zrotation
						JOINT ForeArm.L
						{
							OFFSET 0.270676 0.043302 -0.075610
							CHANNELS 3 Xrotation Yrotation Zrotation
							JOINT Hand.L
							{
								OFFSET 0.274305 0.000862 0.022088
								CHANNELS 3 Xrotation Yrotation Zrotation
								JOINT Thumb1.L
								{
									OFFSET 0.154612 0.000376 0.009632
									CHANNELS 3 Xrotation Yrotation Zrotation
									JOINT Thumb2.L
									{
										OFFSET 0.029903 0.000094 0.002408
										CHANNELS 3 Xrotation Yrotation Zrotation
										End Site
										{
											OFFSET 0.024919 0.000078 0.002007
										}
									}
								}
								JOINT Index1.L
								{
									OFFSET 0.137612 0.000376 0.009632
									CHANNELS 3 Xrotation Yrotation Zrotation
									JOINT Index2.L
									{
										OFFSET 0.029903 0.000094 0.002408
										CHANNELS 3 Xrotation Yrotation Zrotation
										JOINT Index3.L
										{
											OFFSET 0.021929 0.000069 0.001766
											CHANNELS 3 Xrotation Yrotation Zrotation
											End Site
											{
												OFFSET 0.017942 0.000056 0.001445
											}
										}
									}
								}
								JOINT Middle1.L
								{
									OFFSET 0.119612 0.000376 0.009632
									CHANNELS 3 Xrotation Yrotation Zrotation
									JOINT Middle2.L
									{
										OFFSET 0.030900 0.000097 0.002488
										CHANNELS 3 Xrotation Yrotation Zrotation
										JOINT Middle3.L
										{
											OFFSET 0.021929 0.000069 0.001766
											CHANNELS 3 Xrotation Yrotation Zrotation
											End Site
											{
												OFFSET 0.017942 0.000056 0.001445
											}
										}
									}
								}
								JOINT Ring1.L
								{
									OFFSET 0.101612 0.000376 0.009632
									CHANNELS 3 Xrotation Yrotation Zrotation
									JOINT Ring2.L
									{
										OFFSET 0.028906 0.000091 0.002328
										CHANNELS 3 Xrotation Yrotation Zrotation
										JOINT Ring3.L
										{
											OFFSET 0.019935 0.000063 0.001605
											CHANNELS 3 Xrotation Yrotation Zrotation
											End Site
											{
												OFFSET 0.016945 0.000053 0.001365
											}
										}
									}
								}
								JOINT Pinky1.L
								{
									OFFSET 0.085612 0.000376 0.009632
									CHANNELS 3 Xrotation Yrotation Zrotation
									JOINT Pinky2.L
									{
										OFFSET 0.023922 0.000075 0.001926
										CHANNELS 3 Xrotation Yrotation Zrotation
										JOINT Pinky3.L
										{
											OFFSET 0.016945 0.000053 0.001365
											CHANNELS 3 Xrotation Yrotation Zrotation
											End Site
											{
												OFFSET 0.013955 0.000044 0.001124
											}
										}
									}
								}
							}
						}
					}
				}
				JOINT Clavicle.R
				{
					OFFSET -0.048612 0.011296 0.087305
					CHANNELS 3 Xrotation Yrotation Zrotation
					JOINT UpperArm.R
					{
						OFFSET -0.110989 0.009997 0.054341
						CHANNELS 3 Xrotation Yrotation Zrotation
						JOINT ForeArm.R
						{
							OFFSET -0.289214 0.027976 -0.039954
							CHANNELS 3 Xrotation Yrotation Zrotation
							JOINT Hand.R
							{
								OFFSET -0.270534 0.014407 -0.005706
								CHANNELS 3 Xrotation Yrotation Zrotation
								JOINT Thumb1.R
								{
									OFFSET -0.154804 0.006380 -0.002527
									CHANNELS 3 Xrotation Yrotation Zrotation
									JOINT Thumb2.R
									{
										OFFSET -0.029951 0.001595 -0.000632
										CHANNELS 3 Xrotation Yrotation Zrotation
										End Site
										{
											OFFSET -0.024959 0.001329 -0.000526
										}
									}
								}
								JOINT Index1.R
								{
									OFFSET -0.137804 0.006380 -0.002527
									CHANNELS 3 Xrotation Yrotation Zrotation
									JOINT Index2.R
									{
										OFFSET -0.029951 0.001595 -0.000632
										CHANNELS 3 Xrotation Yrotation Zrotation
										JOINT Index3.R
										{
											OFFSET -0.021964 0.001170 -0.000463
											CHANNELS 3 Xrotation Yrotation Zrotation
											End Site
											{
												OFFSET -0.017971 0.000957 -0.000379
											}
										}
									}
								}
								JOINT Middle1.R
								{
									OFFSET -0.119804 0.006380 -0.002527
									CHANNELS 3 Xrotation Yrotation Zrotation
									JOINT Middle2.R
									{
										OFFSET -0.030949 0.001648 -0.000653
										CHANNELS 3 Xrotation Yrotation Zrotation
										JOINT Middle3.R
										{
											OFFSET -0.021964 0.001170 -0.000463
											CHANNELS 3 Xrotation Yrotation Zrotation
											End Site
											{
												OFFSET -0.017971 0.000957 -0.000379
											}
										}
									}
								}
								JOINT Ring1.R
								{
									OFFSET -0.101804 0.006380 -0.002527
									CHANNELS 3 Xrotation Yrotation Zrotation
									JOINT Ring2.R
									{
										OFFSET -0.028953 0.001542 -0.000611
										CHANNELS 3 Xrotation Yrotation Zrotation
										JOINT Ring3.R
										{
											OFFSET -0.019967 0.001063 -0.000421
											CHANNELS 3 Xrotation Yrotation Zrotation
											End Site
											{
												OFFSET -0.016972 0.000904 -0.000358
											}
										}
									}
								}
								JOINT Pinky1.R
								{
									OFFSET -0.085804 0.006380 -0.002527
									CHANNELS 3 Xrotation Yrotation Zrotation
									JOINT Pinky2.R
									{
										OFFSET -0.023961 0.001276 -0.000505
										CHANNELS 3 Xrotation Yrotation Zrotation
										JOINT Pinky3.R
										{
											OFFSET -0.016972 0.000904 -0.000358
											CHANNELS 3 Xrotation Yrotation Zrotation
											End Site
											{
												OFFSET -0.013977 0.000744 -0.000295
											}
										}
									}
								}
							}
						}
					}
				}
			}
		}
	}
}
MOTION
Frames: 4
Frame Time: 0.04166667
0.002480 -0.057197 1.170224 -6.842204 -0.021492 -1.573838 8.963156 -2.928582 5.416592 -2.056021 1.229429 -3.190182 -5.115235 -1.101918 10.147707 -0.222790 -1.158318 -0.966431 4.578579 4.459102 -5.527847 4.871561 -0.041706 -0.628388 -2.603180 -3.430168 -7.481366 -0.125204 -1.516597 0.398793 3.977088 0.789517 2.327965 0.923190 0.497495 -1.093209 4.055496 -0.197896 0.372902 8.091221 2.390884 1.622757 4.383067 -0.909228 0.927011 -0.630947 23.535234 -2.656845 23.502805 43.646058 -25.030698 7.703804 0.577592 -24.836928 -3.314125 0.009415 -14.171806 0.000000 0.000000 0.000000 0.000000 0.000000 0.000000 0.000000 0.000000 0.000000 0.000000 0.000000 0.000000 0.000000 0.000000 0.000000 0.000000 0.000000 0.000000 0.000000 0.000000 0.000000 0.000000 0.000000 0.000000 0.000000 0.000000 0.000000 0.000000 0.000000 0.000000 0.000000 0.000000 0.000000 0.000000 0.000000 0.000000 0.000000 0.000000 0.000000 0.000000 0.000000 0.000000 1.837802 -22.747542 8.854397 25.458957 -45.016726 23.324876 3.099895 -0.570410 28.737353 -2.862638 -2.891592 11.551326 0.000000 0.000000 0.000000 0.000000 0.000000 0.000000 0.000000 0.000000 0.000000 0.000000 0.000000 0.000000 0.000000 0.000000 0.000000 0.000000 0.000000 0.000000 0.000000 0.000000 0.000000 0.000000 0.000000 0.000000 0.000000 0.000000 0.000000 0.000000 0.000000 0.000000 0.000000 0.000000 0.000000 0.000000 0.000000 0.000000 0.000000 0.000000 0.000000 0.000000 0.000000 0.000000
0.001656 -0.056922 1.170293 -6.866036 0.037796 -1.545042 9.124129 -2.944968 5.444982 -2.269630 1.200532 -3.265846 -5.072099 -1.078948 10.159607 -0.212260 -1.181863 -0.993806 4.742643 4.405005 -5.480750 4.689909 -0.023459 -0.527040 -2.509945 -3.429667 -7.532071 -0.103539 -1.534845 0.408240 3.801003 0.805353 2.338775 1.075477 0.453999 -1.136786 3.928156 -0.179363 0.349789 8.139055 2.430815 1.642101 4.378561 -0.889178 0.952600 -0.607118 23.584699 -2.655269 23.497383 43.622994 -24.950182 7.815896 0.606713 -24.803370 -3.155731 0.164543 -14.149569 0.000000 0.000000 0.000000 0.000000 0.000000 0.000000 0.000000 0.000000 0.000000 0.000000 0.000000 0.000000 0.000000 0.000000 0.000000 0.000000 0.000000 0.000000 0.000000 0.000000 0.000000 0.000000 0.000000 0.000000 0.000000 0.000000 0.000000 0.000000 0.000000 0.000000 0.000000 0.000000 0.000000 0.000000 0.000000 0.000000 0.000000 0.000000 0.000000 0.000000 0.000000 0.000000 1.863172 -22.806312 8.829834 25.493767 -44.950346 23.301596 3.231724 -0.550176 28.650468 -2.845288 -2.896871 11.555110 0.000000 0.000000 0.000000 0.000000 0.000000 0.000000 0.000000 0.000000 0.000000 0.000000 0.000000 0.000000 0.000000 0.000000 0.000000 0.000000 0.000000 0.000000 0.000000 0.000000 0.000000 0.000000 0.000000 0.000000 0.000000 0.000000 0.000000 0.000000 0.000000 0.000000 0.000000 0.000000 0.000000 0.000000 0.000000 0.000000 0.000000 0.000000 0.000000 0.000000 0.000000 0.000000
0.002171 -0.056811 1.170360 -6.896693 0.035570 -1.454538 9.196330 -2.955540 5.450762 -2.336131 1.138607 -3.336355 -5.061725 -0.993634 10.150216 -0.213745 -1.210900 -1.008850 4.831823 4.346211 -5.402035 4.668621 -0.000162 -0.435499 -2.516744 -3.328789 -7.665772 -0.086792 -1.557628 0.409337 3.624085 0.774903 2.338479 1.206735 0.439965 -1.155866 3.818423 -0.154367 0.351352 8.118968 2.439130 1.629422 4.421786 -0.873619 1.029237 -0.615602 23.620291 -2.631628 23.480010 43.569543 -24.853093 7.785205 0.657474 -24.785801 -3.116879 0.231792 -14.095445 0.000000 0.000000 0.000000 0.000000 0.000000 0.000000 0.000000 0.000000 0.000000 0.000000 0.000000 0.000000 0.000000 0.000000 0.000000 0.000000 0.000000 0.000000 0.000000 0.000000 0.000000 0.000000 0.000000 0.000000 0.000000 0.000000 0.000000 0.000000 0.000000 0.000000 0.000000 0.000000 0.000000 0.000000 0.000000 0.000000 0.000000 0.000000 0.000000 0.000000 0.000000 0.000000 1.882980 -22.840097 8.792059 25.575800 -44.958897 23.288772 3.224784 -0.621727 28.657997 -2.819593 -2.759320 11.551150 0.000000 0.000000 0.000000 0.000000 0.000000 0.000000 0.000000 0.000000 0.000000 0.000000 0.000000 0.000000 0.000000 0.000000 0.000000 0.000000 0.000000 0.000000 0.000000 0.000000 0.000000 0.000000 0.000000 0.000000 0.000000 0.000000 0.000000 0.000000 0.000000 0.000000 0.000000 0.000000 0.000000 0.000000 0.000000 0.000000 0.000000 0.000000 0.000000 0.000000 0.000000 0.000000
0.002701 -0.056751 1.170407 -6.919546 0.024970 -1.404975 9.279546 -2.962777 5.466919 -2.436772 1.107563 -3.350816 -5.028397 -0.917845 10.117084 -0.211576 -1.220546 -1.024139 4.927091 4.310388 -5.348530 4.591646 0.012322 -0.372310 -2.512337 -3.267474 -7.745027 -0.083575 -1.562873 0.413044 3.487669 0.784503 2.339729 1.315206 0.410904 -1.180969 3.735110 -0.137082 0.353901 8.143484 2.439008 1.612984 4.458202 -0.874734 1.045138 -0.619689 23.639946 -2.632285 23.486451 43.526564 -24.775394 7.792366 0.666886 -24.771844 -3.046993 0.303515 -14.067268 0.000000 0.000000 0.000000 0.000000 0.000000 0.000000 0.000000 0.000000 0.000000 0.000000 0.000000 0.000000 0.000000 0.000000 0.000000 0.000000 0.000000 0.000000 0.000000 0.000000 0.000000 0.000000 0.000000 0.000000 0.000000 0.000000 0.000000 0.000000 0.000000 0.000000 0.000000 0.000000 0.000000 0.000000 0.000000 0.000000 0.000000 0.000000 0.000000 0.000000 0.000000 0.000000 1.907213 -22.888686 8.790215 25.625469 -44.950867 23.287761 3.253337 -0.648939 28.639988 -2.759052 -2.731911 11.561781 0.000000 0.000000 0.000000 0.000000 0.000000 0.000000 0.000000 0.000000 0.000000 0.000000 0.000000 0.000000 0.000000 0.000000 0.000000 0.000000 0.000000 0.000000 0.000000 0.000000 0.000000 0.000000 0.000000 0.000000 0.000000 0.000000 0.000000 0.000000 0.000000 0.000000 0.000000 0.000000 0.000000 0.000000 0.000000 0.000000 0.000000 0.000000 0.000000 0.000000 0.000000 0.000000
